<?xml version="1.0" encoding="utf-8"?>
<!-- Generator: Adobe Illustrator 16.0.0, SVG Export Plug-In . SVG Version: 6.00 Build 0)  -->
<!DOCTYPE svg PUBLIC "-//W3C//DTD SVG 1.1//EN" "http://www.w3.org/Graphics/SVG/1.1/DTD/svg11.dtd">
<svg version="1.1" id="Layer_1" xmlns="http://www.w3.org/2000/svg" xmlns:xlink="http://www.w3.org/1999/xlink" x="0px" y="0px"
	 width="72px" height="72px" viewBox="0 0 72 72" enable-background="new 0 0 72 72" xml:space="preserve">
<g>
	<defs>
		<rect id="SVGID_1_" x="22.734" width="26" height="54"/>
	</defs>
	<clipPath id="SVGID_2_">
		<use xlink:href="#SVGID_1_"  overflow="visible"/>
	</clipPath>
	<g clip-path="url(#SVGID_2_)">
		<polyline fill="#FFFFFF" points="43.416,57.414 37.691,27.168 33.756,27.168 28.031,57.414 		"/>
		<path fill-rule="evenodd" clip-rule="evenodd" fill="#F68B28" d="M34.236,21.25c-0.689-0.141-1.352-0.363-1.986-0.664
			c-1.244-0.588-2.27-1.425-2.928-2.656c-0.557-1.037-0.756-2.148-0.656-3.317c0.104-1.237,0.486-2.371,1.225-3.376
			c0.652-0.889,1.469-1.604,2.316-2.292c0.768-0.625,1.543-1.245,2.27-1.916c0.676-0.626,1.094-1.419,1.219-2.347
			c0.105-0.791-0.002-1.568-0.215-2.331c-0.084-0.302-0.184-0.599-0.289-0.942c1.539,0.953,2.863,2.047,3.408,3.805
			c0.486,1.57,1.604,5.779,1.486,4.712c-0.062-0.556,1.064-3.202,2.066-3.383c0.098-0.017,0.195-0.03,0.293-0.041
			c0.02-0.004,0.041,0.002,0.086,0.006c-0.062,0.138-0.119,0.269-0.178,0.398c-0.385,0.86-0.359,1.705,0.115,2.522
			c0.225,0.391,0.469,0.767,0.709,1.146c0.463,0.737,0.834,1.512,0.934,2.391c0.197,1.76-0.139,3.404-1.176,4.857
			c-1.172,1.639-2.826,2.566-4.732,3.094c-0.02,0.008-0.041,0.002-0.115,0.002c0.094-0.061,0.148-0.096,0.203-0.129
			c0.742-0.459,0.805-3.367-2.826-4.232c-0.83-0.15-1.414-0.761-1.607-1.664c-0.135-0.631-0.115-1.027,0.109-2.078
			C31.35,14.922,31.123,19.369,34.236,21.25z"/>
		<path fill-rule="evenodd" clip-rule="evenodd" fill="#F68B28" d="M39.246,25.557h1.686v-2.23H30.564v2.23h1.637l-5.965,31.518
			l3.592,0.68l1.516-8.008h8.762l1.516,8.008l3.592-0.68L39.246,25.557z M36.951,33.077h-2.453l0.771-4.081h0.908L36.951,33.077z
			 M32.035,46.09l1.771-9.357h3.836l1.771,9.357H32.035z"/>
	</g>
</g>
<line fill="none" stroke="#F68B28" stroke-miterlimit="10" x1="3.214" y1="53.75" x2="68.716" y2="53.75"/>
</svg>
