<?xml version="1.0" encoding="utf-8"?>
<!-- Generator: Adobe Illustrator 16.0.0, SVG Export Plug-In . SVG Version: 6.00 Build 0)  -->
<!DOCTYPE svg PUBLIC "-//W3C//DTD SVG 1.1//EN" "http://www.w3.org/Graphics/SVG/1.1/DTD/svg11.dtd">
<svg version="1.1" id="Layer_1" xmlns="http://www.w3.org/2000/svg" xmlns:xlink="http://www.w3.org/1999/xlink" x="0px" y="0px"
	 width="72px" height="72px" viewBox="0 0 72 72" enable-background="new 0 0 72 72" xml:space="preserve">
<g>
	<path fill="none" stroke="#0082C6" stroke-miterlimit="10" d="M8.03,40.439c6.164,0,6.164,4.932,12.328,4.932
		c6.168,0,6.168-4.932,12.334-4.932c6.164,0,6.164,4.932,12.328,4.932c3.514,0,5.025-1.598,6.814-2.974"/>
	<path fill="#FFFFFF" stroke="#0082C6" stroke-width="2" stroke-miterlimit="10" d="M8.03,48.602c6.164,0,6.164,4.932,12.328,4.932
		c6.168,0,6.168-4.932,12.334-4.932c6.164,0,6.164,4.932,12.328,4.932c3.514,0,5.025-1.598,6.814-2.975"/>
	<path fill="#FFFFFF" stroke="#0082C6" stroke-width="2" stroke-miterlimit="10" d="M7.593,32.206c6.338,0,6.338,5.073,12.676,5.073
		c6.34,0,6.34-5.073,12.68-5.073"/>
	<path fill="none" stroke="#0082C6" stroke-miterlimit="10" d="M7.593,24.044c6.338,0,6.338,5.072,12.676,5.072
		c6.34,0,6.34-5.072,12.68-5.072c2.736,0,4.291,0.945,5.684,2.02"/>
	<g>
		<path fill-rule="evenodd" clip-rule="evenodd" fill="#0082C6" d="M66.128,43.412c-0.787,0.818-1.662,1.547-2.639,2.125
			c-1.207,0.715-2.496,1.033-3.881,0.51c-1.598-0.809-2.43-2.25-3.084-3.812c-0.717-1.71-1.15-3.51-1.436-5.34
			c-0.09-0.565-0.25-0.822-0.9-0.85c-0.955-0.036-1.84-0.414-2.521-1.123c-0.391-0.402-0.699-0.378-1.145-0.058
			c-1.443,1.044-2.971,1.95-4.609,2.659c-1.295,0.561-2.627,0.926-4.049,0.916c-2.986-0.416-3.771-3.273-3.75-5.715
			c0.025-2.926,1.318-4.136,4.051-4.545c1.527-0.514,5.289,0.748,7.02,1.205c0.895,0.666,1.568,0.299,2.111-0.49
			c0.463-0.67,1.129-1.062,1.861-1.26c0.566-0.154,0.588-0.424,0.529-0.889c-0.26-2.031-0.398-4.068-0.146-6.115
			c0.135-1.094,0.326-2.178,0.904-3.134c0.883-1.46,2.271-1.918,3.898-1.838c0.996,0.306,2.031,0.477,2.957,1.011
			c2.822,1.633,3.4,3.859,1.713,6.672c-1.176,1.961-2.717,3.609-4.408,5.117c-0.445,0.393-0.547,0.67-0.211,1.204
			c0.561,0.89,0.729,1.928,0.443,2.921c-0.211,0.729,0.027,0.988,0.621,1.221c0.484,0.188,0.943,0.449,1.412,0.676
			c2.346,0.924,4.453,2.14,5.568,4.564C67.198,40.565,67.108,42.021,66.128,43.412z"/>
		<circle fill="#FFFFFF" cx="54.59" cy="31.596" r="2.71"/>
	</g>
</g>
</svg>
