<?xml version="1.0" encoding="utf-8"?>
<!-- Generator: Adobe Illustrator 16.0.0, SVG Export Plug-In . SVG Version: 6.00 Build 0)  -->
<!DOCTYPE svg PUBLIC "-//W3C//DTD SVG 1.1//EN" "http://www.w3.org/Graphics/SVG/1.1/DTD/svg11.dtd">
<svg version="1.1" id="Layer_1" xmlns="http://www.w3.org/2000/svg" xmlns:xlink="http://www.w3.org/1999/xlink" x="0px" y="0px"
	 width="72px" height="72px" viewBox="0 0 72 72" enable-background="new 0 0 72 72" xml:space="preserve">
<path fill="#CF4B9A" d="M54.291,53.509l-2.498-20.652c0.389-0.085,0.686-0.416,0.686-0.83c0-0.479-0.387-0.865-0.865-0.865H40.109
	c-0.479,0-0.865,0.387-0.865,0.865c0,0.364,0.227,0.673,0.545,0.801l-2.506,20.682H54.291z"/>
<g>
	<circle fill="none" stroke="#CF4B9A" stroke-width="0.7558" stroke-miterlimit="10" cx="39.004" cy="15.874" r="1.885"/>
	<circle fill="none" stroke="#CF4B9A" stroke-width="0.7558" stroke-miterlimit="10" cx="40.004" cy="7.875" r="1.447"/>
</g>
<g>
	<path fill="#CF4B9A" d="M15.727,54.056l3.479-28.72c-0.407-0.238-0.672-0.673-0.672-1.159c0-0.753,0.613-1.366,1.367-1.366h15.709
		c0.753,0,1.365,0.613,1.365,1.366c0,0.458-0.237,0.875-0.61,1.122l3.481,28.757H15.727z"/>
	<path fill="#FFFFFF" d="M35.609,23.311c0.477,0,0.865,0.388,0.865,0.866c0,0.401-0.279,0.725-0.65,0.822l3.457,28.556h-22.99
		l3.457-28.543c-0.402-0.074-0.715-0.411-0.715-0.835c0-0.479,0.389-0.866,0.867-0.866H35.609 M35.609,22.311H19.9
		c-1.029,0-1.867,0.837-1.867,1.866c0,0.548,0.245,1.049,0.64,1.391l-3.375,27.868l-0.136,1.12h1.128h22.99h1.128l-0.135-1.12
		l-3.381-27.921c0.362-0.341,0.581-0.82,0.581-1.337C37.475,23.148,36.638,22.311,35.609,22.311L35.609,22.311z"/>
</g>
<path fill-rule="evenodd" clip-rule="evenodd" fill="#FFFFFF" d="M31.787,48.765c-1.938,1.674-5.863,1.676-7.932,0.016
	c0.85-1.301,1.703-2.604,2.58-3.945c0.912,0.543,1.82,0.586,2.773-0.006C30.072,46.147,30.932,47.458,31.787,48.765z"/>
<path fill-rule="evenodd" clip-rule="evenodd" fill="#FFFFFF" d="M28.912,40.597c0.643-1.285,1.314-2.629,2.006-4.012
	c1.285,0.627,2.262,1.527,2.988,2.713c0.676,1.102,0.955,2.316,1.029,3.588c0.014,0.244,0.012,0.477-0.355,0.459
	c-1.438-0.074-2.877-0.135-4.242-0.197c-0.156-0.525-0.225-1.021-0.449-1.43C29.67,41.323,29.291,41.017,28.912,40.597z"/>
<path fill-rule="evenodd" clip-rule="evenodd" fill="#FFFFFF" d="M26.793,40.702c-0.939,0.545-1.404,1.326-1.35,2.434
	c-1.562,0.074-3.098,0.146-4.627,0.221c-0.369-2.303,1.176-5.531,3.924-6.75C25.416,37.954,26.092,39.302,26.793,40.702z"/>
<path fill-rule="evenodd" clip-rule="evenodd" fill="#FFFFFF" d="M27.859,41.31c0.877,0.008,1.545,0.695,1.539,1.58
	c-0.006,0.852-0.723,1.557-1.58,1.553c-0.9-0.006-1.568-0.703-1.553-1.617C26.281,41.944,26.959,41.3,27.859,41.31z"/>
<path fill="none" stroke="#CF4B9A" stroke-width="0.7558" stroke-miterlimit="10" d="M31.479,20.622c-0.4,0-0.777,0.078-1.141,0.191
	c-1.072-0.866-2.42-1.405-3.906-1.405c-3.457,0-6.26,2.803-6.26,6.26c0,3.455,2.803,6.257,6.26,6.257
	c2.543,0,4.723-1.523,5.701-3.701c1.805-0.311,3.18-1.875,3.18-3.769C35.312,22.336,33.596,20.622,31.479,20.622z"/>
<path fill="none" stroke="#CF4B9A" stroke-width="0.7558" stroke-miterlimit="10" d="M36.109,13.542
	c0-1.164-0.941-2.105-2.105-2.105c-0.633,0-1.193,0.285-1.58,0.728c-0.428-0.216-0.906-0.35-1.418-0.35
	c-1.748,0-3.166,1.416-3.166,3.164s1.418,3.166,3.166,3.166c1.521,0,2.789-1.075,3.094-2.507
	C35.217,15.586,36.109,14.671,36.109,13.542z"/>
<line fill="none" stroke="#CF4B9A" stroke-miterlimit="10" x1="4.004" y1="53.647" x2="68.006" y2="53.647"/>
</svg>
