<?xml version="1.0" encoding="utf-8"?>
<!-- Generator: Adobe Illustrator 16.0.0, SVG Export Plug-In . SVG Version: 6.00 Build 0)  -->
<!DOCTYPE svg PUBLIC "-//W3C//DTD SVG 1.1//EN" "http://www.w3.org/Graphics/SVG/1.1/DTD/svg11.dtd">
<svg version="1.1" id="Layer_1" xmlns="http://www.w3.org/2000/svg" xmlns:xlink="http://www.w3.org/1999/xlink" x="0px" y="0px"
	 width="72px" height="72px" viewBox="0 0 72 72" enable-background="new 0 0 72 72" xml:space="preserve">
<circle fill="#FFFFFF" stroke="#D7C945" stroke-width="1.6321" stroke-miterlimit="10" cx="57.672" cy="12.945" r="7.345"/>
<circle fill="none" stroke="#D7C945" stroke-width="3.2642" stroke-miterlimit="10" stroke-dasharray="0.816,3.2642" cx="57.671" cy="12.945" r="9.111"/>
<g>
	
		<rect x="6.255" y="19.51" fill="#FFFFFF" stroke="#D7C945" stroke-width="2" stroke-miterlimit="10" width="17.709" height="25.955"/>
	<g>
		<g>
			<g>
				<rect x="8.708" y="36.836" fill="#D7C945" width="5.543" height="5.543"/>
				<rect x="8.708" y="22.383" fill="#D7C945" width="5.543" height="5.543"/>
				<rect x="8.708" y="29.61" fill="#D7C945" width="5.543" height="5.543"/>
			</g>
			<g>
				<rect x="15.966" y="36.836" fill="#D7C945" width="5.543" height="5.543"/>
				<rect x="15.966" y="22.383" fill="#D7C945" width="5.543" height="5.543"/>
				<rect x="15.966" y="29.61" fill="#D7C945" width="5.543" height="5.543"/>
			</g>
		</g>
	</g>
</g>
<g>
	
		<rect x="27.505" y="19.51" fill="#FFFFFF" stroke="#D7C945" stroke-width="2" stroke-miterlimit="10" width="17.709" height="25.955"/>
	<g>
		<g>
			<g>
				<rect x="29.958" y="36.836" fill="#D7C945" width="5.543" height="5.543"/>
				<rect x="29.958" y="22.383" fill="#D7C945" width="5.543" height="5.543"/>
				<rect x="29.958" y="29.61" fill="#D7C945" width="5.543" height="5.543"/>
			</g>
			<g>
				<rect x="37.216" y="36.836" fill="#D7C945" width="5.545" height="5.543"/>
				<rect x="37.216" y="22.383" fill="#D7C945" width="5.545" height="5.543"/>
				<rect x="37.216" y="29.61" fill="#D7C945" width="5.545" height="5.543"/>
			</g>
		</g>
	</g>
</g>
<line fill="none" stroke="#D7C945" stroke-miterlimit="10" x1="15.005" y1="45.861" x2="15.005" y2="53.529"/>
<line fill="none" stroke="#D7C945" stroke-miterlimit="10" x1="36.005" y1="45.861" x2="36.005" y2="53.529"/>
<line fill="none" stroke="#D7C945" stroke-miterlimit="10" x1="4.005" y1="53.529" x2="68.007" y2="53.529"/>
</svg>
