<?xml version="1.0" encoding="utf-8"?>
<!-- Generator: Adobe Illustrator 16.0.0, SVG Export Plug-In . SVG Version: 6.00 Build 0)  -->
<!DOCTYPE svg PUBLIC "-//W3C//DTD SVG 1.1//EN" "http://www.w3.org/Graphics/SVG/1.1/DTD/svg11.dtd">
<svg version="1.1" id="Layer_1" xmlns="http://www.w3.org/2000/svg" xmlns:xlink="http://www.w3.org/1999/xlink" x="0px" y="0px"
	 width="72px" height="72px" viewBox="0 0 72 72" enable-background="new 0 0 72 72" xml:space="preserve">
<g>
	<g>
		<defs>
			<rect id="SVGID_1_" x="9.423" y="10.358" width="57.346" height="43.843"/>
		</defs>
		<clipPath id="SVGID_2_">
			<use xlink:href="#SVGID_1_"  overflow="visible"/>
		</clipPath>
		<g clip-path="url(#SVGID_2_)">
			<polyline fill="#FFFFFF" stroke="#ED1C24" stroke-width="3.0275" stroke-miterlimit="10" points="39.57,54.543 34.828,29.493 
				31.568,29.493 26.826,54.543 			"/>
			
				<line fill="none" stroke="#ED1C24" stroke-width="3.0275" stroke-miterlimit="10" x1="30.085" y1="35.901" x2="35.716" y2="35.901"/>
			<line fill="none" stroke="#ED1C24" stroke-width="3.0275" stroke-miterlimit="10" x1="28.26" y1="46.68" x2="37.43" y2="46.68"/>
			<g>
				<path fill="#ED1C24" d="M16.945,11.079c-0.23,0.338-0.426,0.7-0.577,1.089L11.32,25.139c-1.47,3.777,1.604,8.499,6.866,10.545
					c0.089,0.035,0.178,0.066,0.267,0.1l8.15-20.947L16.945,11.079z"/>
				<polygon fill="#ED1C24" points="59.523,43.303 21.228,27.865 23.833,21.168 62.129,36.607 				"/>
			</g>
			<rect x="48.201" y="45.871" fill="#ED1C24" width="8.465" height="8.465"/>
			<g>
				<rect x="50.105" y="37.867" fill="#ED1C24" width="1.27" height="11.322"/>
				<rect x="53.49" y="37.867" fill="#ED1C24" width="1.27" height="11.322"/>
			</g>
		</g>
	</g>
	
		<line fill="none" stroke="#ED1C24" stroke-width="1.4368" stroke-miterlimit="10" x1="17.621" y1="33.961" x2="17.621" y2="54.227"/>
</g>
<line fill="none" stroke="#ED1C24" stroke-miterlimit="10" x1="2.847" y1="54.172" x2="68.348" y2="54.172"/>
</svg>
