<?xml version="1.0" encoding="utf-8"?>
<!-- Generator: Adobe Illustrator 16.0.0, SVG Export Plug-In . SVG Version: 6.00 Build 0)  -->
<!DOCTYPE svg PUBLIC "-//W3C//DTD SVG 1.1//EN" "http://www.w3.org/Graphics/SVG/1.1/DTD/svg11.dtd">
<svg version="1.1" id="Layer_1" xmlns="http://www.w3.org/2000/svg" xmlns:xlink="http://www.w3.org/1999/xlink" x="0px" y="0px"
	 width="72px" height="72px" viewBox="0 0 72 72" enable-background="new 0 0 72 72" xml:space="preserve">
<line fill="none" stroke="#0DB04B" stroke-miterlimit="10" x1="2.956" y1="54.303" x2="68.455" y2="54.303"/>
<g>
	<polygon fill="#0DB04B" points="35.988,25.053 33.276,25.053 31.409,54.701 37.855,54.701 	"/>
	<path fill="#0DB04B" stroke="#FFFFFF" stroke-width="1.5354" stroke-miterlimit="10" d="M26.151,1.777
		c-1.23,0.541,0.703,7.631,4.316,15.838c1.492,3.389,3.038,6.436,4.424,8.81l3.543-1.553c-0.815-2.625-2.02-5.822-3.512-9.21
		C31.309,7.454,27.382,1.238,26.151,1.777z"/>
	<path fill="#0DB04B" stroke="#FFFFFF" stroke-width="1.5354" stroke-miterlimit="10" d="M60.557,21.551
		c-0.113-1.339-7.446-1.807-16.382-1.048c-3.688,0.314-7.072,0.787-9.768,1.331l0.321,3.855c2.747,0.079,6.162-0.025,9.851-0.338
		C53.516,24.591,60.668,22.889,60.557,21.551z"/>
	<path fill="#0DB04B" stroke="#FFFFFF" stroke-width="1.5354" stroke-miterlimit="10" d="M24.139,45.021
		c1.195,0.611,5.467-5.367,9.54-13.357c1.683-3.299,3.065-6.422,4.028-8.998l-3.443-1.762c-1.519,2.29-3.234,5.244-4.916,8.543
		C25.275,37.438,22.942,44.41,24.139,45.021z"/>
	<circle fill="#0DB04B" stroke="#FFFFFF" stroke-width="1.5354" stroke-miterlimit="10" cx="34.454" cy="23.136" r="3.679"/>
</g>
<line fill="none" stroke="#0DB04B" stroke-miterlimit="10" x1="27.646" y1="4.387" x2="12.396" y2="4.387"/>
<line fill="none" stroke="#0DB04B" stroke-miterlimit="10" x1="29.646" y1="9.137" x2="21.146" y2="9.137"/>
<line fill="none" stroke="#0DB04B" stroke-miterlimit="10" x1="31.646" y1="15.387" x2="16.396" y2="15.387"/>
</svg>
